<svg width="43" height="43" viewBox="0 0 43 43" fill="none" xmlns="http://www.w3.org/2000/svg">
<path d="M25.5324 14.3909C25.0588 11.4784 22.2089 9.23654 19.2594 9.43027C16.1978 9.63183 13.9336 11.6777 13.4387 14.7112C13.3782 15.0807 13.3939 15.4637 13.3939 15.84C13.3917 22.449 13.3905 29.0569 13.3939 35.6659C13.3939 36.3579 13.227 36.9727 12.6526 37.4038C12.0714 37.8405 11.4275 37.9323 10.759 37.6255C10.0759 37.3131 9.73105 36.7521 9.65714 36.0164C9.64595 35.9055 9.65155 35.7935 9.65155 35.6815C9.65155 29.0311 9.65043 22.3807 9.65155 15.7302C9.65155 13.3607 10.3313 11.2074 11.8553 9.37988C14.1162 6.66774 17.0299 5.42365 20.5583 5.77639C25.033 6.2243 28.5335 9.57584 29.249 14.0516C29.3039 14.3932 29.5402 14.345 29.7272 14.3965C31.6778 14.9206 32.9522 16.1479 33.5714 18.0639C33.5837 18.1031 33.6073 18.1422 33.6095 18.1826C33.6352 18.7178 33.8581 19.056 34.3777 19.318C35.0641 19.6652 35.3597 20.5767 35.1794 21.3191C34.9857 22.1186 34.3486 22.702 33.5546 22.8028C33.4158 22.8207 33.2769 22.8364 33.1369 22.8364C29.5032 22.8387 25.8695 22.8364 22.2369 22.8387C21.5762 22.8387 20.9973 22.6606 20.5594 22.1377C19.7476 21.1679 20.0522 19.6988 21.1966 19.1635C21.4933 19.0246 21.6008 18.8645 21.6725 18.5398C22.1171 16.5107 23.3287 15.1446 25.3152 14.4872C25.3801 14.466 25.4417 14.4313 25.5313 14.3921L25.5324 14.3909ZM28.0688 14.2319C27.2222 9.17495 22.4071 5.94995 17.5002 7.13357C13.5372 8.08876 10.8228 11.6531 10.8531 15.747C10.9012 22.3683 10.8654 28.9897 10.8665 35.611C10.8665 36.284 11.0614 36.5841 11.5026 36.5986C11.9594 36.6143 12.1744 36.2985 12.1744 35.6076C12.1744 29.0277 12.1711 22.449 12.1812 15.8691C12.1812 15.3282 12.2259 14.7795 12.3222 14.2465C12.9314 10.8838 15.7298 8.42693 19.1552 8.22201C22.4664 8.02381 25.5448 10.1828 26.5346 13.3999C26.6198 13.6754 26.6869 13.9553 26.762 14.2308H28.0699L28.0688 14.2319ZM32.5177 18.9205C32.3408 17.3606 31.1191 15.9195 29.5357 15.6048C28.6051 15.42 27.6197 15.3988 26.6668 15.4547C24.6299 15.5734 23.1014 16.9956 22.8304 18.9205H32.5177ZM27.6668 21.6293C29.4831 21.6293 31.2994 21.6326 33.1157 21.6248C33.3038 21.6248 33.5188 21.6013 33.6744 21.5095C33.9589 21.3415 34.0966 21.0638 34.007 20.7234C33.8917 20.2889 33.5669 20.1332 33.1526 20.1332C29.492 20.131 25.8314 20.1288 22.1708 20.1355C21.6266 20.1355 21.2929 20.449 21.2951 20.8925C21.2963 21.3482 21.6434 21.6282 22.2178 21.6293C24.0342 21.6304 25.8505 21.6293 27.6668 21.6293Z" fill="#09757A"/>
<path d="M32.0216 25.7004C32.0216 25.9233 32.0462 26.1495 32.016 26.3678C31.9712 26.697 31.7651 26.9008 31.4236 26.8941C31.0865 26.8885 30.8693 26.6982 30.8536 26.3544C30.8346 25.9244 30.838 25.4921 30.8514 25.061C30.8615 24.7072 31.0966 24.5224 31.4169 24.5112C31.7439 24.5 31.9723 24.696 32.0149 25.033C32.0429 25.2525 32.0205 25.4776 32.0216 25.7004Z" fill="#09757A"/>
<path d="M26.4989 29.6695C26.4989 29.8778 26.5123 30.0883 26.4955 30.2955C26.4675 30.6381 26.2626 30.8296 25.9244 30.8363C25.5829 30.8431 25.3589 30.6415 25.3343 30.3112C25.3018 29.8688 25.3041 29.4198 25.3343 28.9764C25.3567 28.6371 25.6008 28.4445 25.9278 28.4534C26.2503 28.4635 26.4776 28.6483 26.4967 29.001C26.5079 29.2227 26.4989 29.4467 26.4989 29.6684V29.6695Z" fill="#09757A"/>
<path d="M27.3297 25.6915C27.3297 25.4832 27.3219 25.2738 27.332 25.0656C27.3476 24.7117 27.5738 24.5247 27.8952 24.5124C28.2222 24.4989 28.4685 24.6915 28.4932 25.0297C28.5257 25.4732 28.5245 25.9211 28.4943 26.3645C28.4719 26.696 28.2502 26.8987 27.9098 26.8953C27.5727 26.8919 27.3622 26.7038 27.3342 26.36C27.3163 26.1394 27.3308 25.9155 27.3297 25.6926V25.6915Z" fill="#09757A"/>
<path d="M22.9804 29.6924C22.9804 29.8873 22.9905 30.0821 22.9781 30.277C22.9569 30.6207 22.7598 30.8178 22.4227 30.8357C22.0801 30.8537 21.846 30.6532 21.818 30.3273C21.7788 29.8716 21.78 29.4069 21.818 28.9511C21.8472 28.6174 22.1025 28.4315 22.4317 28.4528C22.734 28.473 22.9546 28.6488 22.9748 28.9825C22.9882 29.2188 22.977 29.455 22.977 29.6924C22.977 29.6924 22.9781 29.6924 22.9793 29.6924H22.9804Z" fill="#09757A"/>
<path d="M30.0182 29.6659C30.0182 29.8742 30.0316 30.0847 30.0148 30.2919C29.9891 30.6345 29.7841 30.8271 29.4471 30.8361C29.1067 30.845 28.8794 30.6468 28.8558 30.3154C28.8234 29.8719 28.8278 29.424 28.8547 28.9806C28.876 28.639 29.1179 28.4476 29.4449 28.4543C29.7674 28.461 29.9958 28.6446 30.0159 28.9985C30.0283 29.2202 30.0182 29.4442 30.0182 29.6659Z" fill="#09757A"/>
<path d="M23.8101 25.6779C23.8101 25.4696 23.7989 25.2602 23.8124 25.0519C23.8348 24.6992 24.0643 24.52 24.3868 24.5111C24.6959 24.5021 24.9433 24.6857 24.9669 25.0004C25.0027 25.4707 25.0061 25.9489 24.9635 26.4181C24.9355 26.7238 24.6981 26.9063 24.3756 26.8951C24.0587 26.8839 23.8504 26.707 23.8157 26.3867C23.79 26.1527 23.8112 25.9142 23.8112 25.6779C23.8112 25.6779 23.8101 25.6779 23.809 25.6779H23.8101Z" fill="#09757A"/>
<path d="M32.3675 29.6332C32.3675 29.4249 32.3552 29.2144 32.3709 29.0072C32.3955 28.6735 32.6699 28.4137 32.9778 28.4484C33.3003 28.4843 33.5288 28.6578 33.5377 29.0106C33.5489 29.4417 33.5579 29.8739 33.5321 30.3039C33.512 30.641 33.2936 30.8358 32.9543 30.8347C32.615 30.8336 32.409 30.6365 32.3731 30.3006C32.3496 30.08 32.3687 29.856 32.3675 29.6332Z" fill="#09757A"/>
</svg>
