<svg width="28" height="28" viewBox="0 0 28 28" fill="none" xmlns="http://www.w3.org/2000/svg">
<path d="M19.8272 7.73707C19.9677 7.73707 20.0758 7.73707 20.184 7.73707C22.2692 7.73707 24.3545 7.73707 26.4397 7.73707C26.9402 7.73707 27.0807 7.87915 27.0815 8.38371C27.0815 8.90764 27.0815 9.43076 27.0815 9.9547C27.0815 10.5045 26.9548 10.6344 26.4155 10.6377C26.3267 10.6377 26.2379 10.6377 26.12 10.6377C26.1935 13.447 25.2732 15.8512 23.2453 17.783C21.2206 19.7108 18.7664 20.4737 15.9595 20.2905C15.9595 20.6602 15.9595 20.9984 15.9595 21.3367C15.9595 21.75 15.9595 22.1626 15.9595 22.5759C15.9595 23.0595 15.8125 23.2072 15.3346 23.2096C15.2345 23.2096 15.1344 23.2096 14.9923 23.2096C14.9923 23.3194 14.9923 23.4163 14.9923 23.5124C14.9923 24.2276 14.9964 24.9429 14.9907 25.6573C14.9842 26.4541 14.3392 27.0782 13.536 27.0774C12.7359 27.0757 12.0974 26.4461 12.0925 25.6452C12.0885 24.9405 12.0917 24.2349 12.0917 23.5301C12.0917 23.4324 12.0917 23.3339 12.0917 23.2088C11.9238 23.2088 11.7849 23.212 11.6469 23.2088C11.3038 23.1999 11.1278 23.0296 11.1262 22.6857C11.1222 21.9607 11.1246 21.2358 11.1246 20.51C11.1246 20.4519 11.1189 20.3946 11.1133 20.2953C8.3249 20.4729 5.86104 19.7124 3.8307 17.7741C1.81167 15.8463 0.894584 13.4527 0.965626 10.6385C0.800938 10.6385 0.654011 10.6425 0.506277 10.6377C0.194662 10.6272 0.0089851 10.4584 0.00575593 10.1565C-0.00150969 9.5123 -0.00231699 8.86727 0.00575593 8.22306C0.00979239 7.89207 0.205964 7.73949 0.595079 7.73949C2.7005 7.73949 4.80591 7.73949 6.91133 7.73949H7.25766C7.25766 7.48035 7.25766 7.23332 7.25766 6.98628C7.25766 6.46235 7.25604 5.93923 7.25766 5.4153C7.25927 4.99873 7.42154 4.8397 7.84698 4.83889C8.41128 4.83727 8.97557 4.83808 9.53906 4.83889C10.0041 4.83889 10.1574 4.98985 10.1574 5.44678C10.1583 6.19998 10.1574 6.95319 10.1574 7.72254H12.0925C12.0925 7.62324 12.0925 7.51748 12.0925 7.41173C12.0925 6.07243 12.0901 4.73233 12.0925 3.39303C12.0966 1.6178 13.4786 0.104931 15.1812 0.00644109C17.0727 -0.102543 18.6437 1.18267 18.8512 3.0136C18.8657 3.14277 18.8657 3.27597 18.8592 3.40595C18.8447 3.67639 18.6711 3.86287 18.3999 3.8661C17.7452 3.87498 17.0905 3.87337 16.4358 3.86772C16.1661 3.8653 16.0119 3.7111 15.9627 3.44954C15.8916 3.07254 15.7084 2.88282 15.4396 2.90865C15.1586 2.9361 14.9939 3.15649 14.9939 3.52381C14.9923 4.91316 14.9939 6.30251 14.9939 7.71527H16.929C16.929 7.47227 16.929 7.22444 16.929 6.9766C16.929 6.43248 16.925 5.88918 16.9306 5.34506C16.9339 5.01891 17.1107 4.84293 17.4368 4.8397C18.0616 4.83404 18.6857 4.83485 19.3105 4.8397C19.652 4.84212 19.8264 5.01972 19.828 5.36524C19.832 6.14024 19.8296 6.91524 19.8296 7.73868L19.8272 7.73707ZM1.94164 10.6522C1.91016 11.5265 1.99169 12.3717 2.21531 13.2C3.20425 16.8611 6.40758 19.3209 10.2196 19.3395C12.4348 19.35 14.6508 19.3443 16.866 19.3387C17.2172 19.3378 17.5732 19.3257 17.9196 19.2725C21.1923 18.7655 23.4479 16.9701 24.6532 13.887C25.056 12.8577 25.1795 11.7719 25.14 10.6522H1.94083H1.94164ZM26.1015 8.72519H0.981771V9.65519H26.1007V8.72519H26.1015ZM17.8146 2.9022C17.6063 1.69126 16.3615 0.79678 15.1893 0.992951C13.8694 1.21415 13.0621 2.16272 13.058 3.50605C13.054 4.82516 13.0572 6.14509 13.058 7.46501C13.058 7.55139 13.0693 7.63777 13.075 7.72254H14.0252C14.0252 7.59983 14.0252 7.49246 14.0252 7.38428C14.0252 6.06436 14.0244 4.74524 14.0268 3.42532C14.0268 3.29615 14.0333 3.16214 14.0647 3.03782C14.2133 2.45173 14.6952 2.01498 15.2587 1.94152C15.8836 1.86079 16.4349 2.14253 16.7571 2.68907C16.8095 2.77787 16.9145 2.88282 17.0033 2.8917C17.2697 2.91834 17.5409 2.90139 17.8138 2.90139L17.8146 2.9022ZM14.9713 22.2296V20.3324H12.1071V22.2296H14.9713ZM13.0589 23.2209C13.0589 24.0355 13.0524 24.8194 13.0621 25.6024C13.0653 25.8914 13.2728 26.0965 13.5247 26.107C13.7588 26.1167 14.0074 25.9237 14.0131 25.6646C14.0292 24.8541 14.0187 24.0427 14.0187 23.2209H13.058H13.0589ZM9.16852 7.72415V5.82701H8.2369V7.72415H9.16852ZM18.8391 7.72496V5.82782H17.9099V7.72496H18.8391Z" fill="#09757A"/>
</svg>
