<svg width="36" height="36" viewBox="0 0 36 36" fill="none" xmlns="http://www.w3.org/2000/svg">
<path d="M12.2099 0.00195312C12.5289 0.175976 12.6563 0.437008 12.6449 0.806148C12.6238 1.47148 12.6405 2.13857 12.6388 2.80478C12.637 3.38925 12.4428 3.58437 11.8662 3.59052C11.7405 3.59228 11.6139 3.59052 11.4663 3.59052V5.4037C11.6948 5.4037 11.9137 5.39491 12.1316 5.40546C13.0852 5.45204 13.82 6.21318 13.8323 7.16064C13.8446 8.10986 13.1371 8.8956 12.1896 8.97294C11.9585 8.9914 11.7256 8.97557 11.4689 8.97557V17.3463H12.6405C12.6405 16.8409 12.6405 16.3426 12.6405 15.8433C12.6414 15.1604 12.8321 14.9679 13.5177 14.9679C20.2387 14.9679 26.9596 14.9794 33.6806 14.9556C34.8135 14.9512 35.6353 15.287 36.0001 16.4225V17.0545C35.8454 17.5713 35.6177 18.0529 35.1132 18.2999C34.8478 18.4291 34.7731 18.6014 34.7459 18.8633C34.614 20.1298 34.1737 21.2908 33.4864 22.356C32.2823 24.2202 30.5965 25.4797 28.5232 26.2329C28.2929 26.3164 28.1954 26.4139 28.2068 26.6723C28.2341 27.3025 28.22 27.9353 28.2323 28.5664C28.2754 30.7944 28.6814 32.9275 29.8363 34.8752C30.2028 35.493 29.9303 35.9298 29.2149 35.9298C22.9474 35.9316 16.68 35.9307 10.4125 35.9298C9.80868 35.9298 9.57577 35.6679 9.67596 35.0738C9.87723 33.8855 10.0407 32.6955 10.0029 31.4852C9.9414 29.4936 9.24881 27.7938 7.70897 26.4842C6.91708 25.8101 6.10321 25.1615 5.31572 24.4821C3.91826 23.278 2.96288 21.8032 2.6333 19.9645C2.55156 19.5084 2.5041 19.047 2.44082 18.5855C2.35732 18.5785 2.29932 18.5715 2.24219 18.5697C1.38525 18.5469 1.26484 18.422 1.26484 17.5511C1.26484 13.0379 1.26484 8.52382 1.26484 4.01064V3.59228C1.11279 3.59228 1.02051 3.59228 0.928228 3.59228C0.238287 3.58701 0.0704155 3.41474 0.0704155 2.71161C0.0704155 2.09199 0.0862298 1.47148 0.0642571 0.852733C0.0510736 0.47744 0.163571 0.193551 0.490524 0.00370729H12.2099V0.00195312ZM3.67041 18.5679C3.74863 19.8951 4.07119 21.0737 4.79541 22.124C5.35352 22.9326 6.09443 23.554 6.83623 24.1833C7.72568 24.9382 8.66435 25.6563 9.44218 26.5168C11.0462 28.2922 11.345 30.4885 11.1912 32.7807C11.1481 33.4258 11.0611 34.0683 10.9917 34.7363C12.978 34.7363 14.9283 34.7389 16.8786 34.7284C16.9656 34.7284 17.0886 34.637 17.1343 34.5544C17.6529 33.621 18.0291 32.6322 18.2523 31.5854C18.6065 29.926 18.581 28.2421 18.6004 26.5598C18.603 26.355 18.4861 26.3199 18.3455 26.2522C17.6301 25.9121 16.8786 25.6273 16.2159 25.2028C13.9264 23.7368 12.47 21.6889 12.0965 18.9538C12.0525 18.6303 11.9523 18.56 11.6517 18.5609C9.12665 18.5715 6.60244 18.5671 4.07734 18.5671H3.67041V18.5679ZM33.5479 18.5926H13.2953C13.3603 19.4187 13.5634 20.1834 13.922 20.8962C15.3106 23.6524 17.6353 25.1597 20.6095 25.5851C22.1696 25.8084 23.7789 25.6994 25.3662 25.709C25.7933 25.7117 26.2275 25.6282 26.6485 25.5385C29.1701 24.9998 31.2188 23.7473 32.5917 21.514C33.1357 20.629 33.4574 19.6622 33.5461 18.5917L33.5479 18.5926ZM10.2349 3.61162H2.48037V17.3384H10.2349V3.61162ZM28.4063 34.7187C27.0721 32.1752 27.0009 29.4453 27.0185 26.7075C24.6051 27.0582 22.2346 27.0503 19.8792 26.7189C19.8001 28.0891 19.7632 29.4435 19.6331 30.79C19.5004 32.1558 19.0741 33.454 18.4492 34.7187H28.4063ZM13.8552 17.3665H14.2067C20.7871 17.3665 27.3666 17.3665 33.9469 17.3656C34.0752 17.3656 34.2053 17.3621 34.3301 17.3366C34.6211 17.2768 34.7757 17.0703 34.7863 16.7917C34.7977 16.5113 34.6562 16.2907 34.3706 16.2151C34.215 16.1738 34.0471 16.1694 33.8845 16.1694C27.3393 16.1677 20.7941 16.1677 14.2498 16.1677H13.8552V17.3674V17.3665ZM1.27363 2.37412H11.4171V1.22627H1.27363V2.37412ZM11.4601 7.79345C11.8829 7.76444 12.339 7.91649 12.5473 7.45595C12.6247 7.28456 12.5913 6.97782 12.4814 6.82226C12.2265 6.46191 11.8214 6.61835 11.4601 6.60165V7.79345Z" fill="#09757A"/>
</svg>
