<svg width="36" height="36" viewBox="0 0 36 36" fill="none" xmlns="http://www.w3.org/2000/svg">
<path d="M4.28149 35.999C3.98243 35.848 3.65524 35.7346 3.39181 35.5368C2.92962 35.1899 2.70556 34.6921 2.66993 34.1137C2.66524 34.0321 2.66712 33.9496 2.66712 33.8681C2.66712 23.3084 2.66712 12.7477 2.66712 2.18798C2.66712 1.08082 3.28774 0.28678 4.30493 0.0964725C4.46431 0.0664733 4.63024 0.0655356 4.79337 0.0655356C13.5777 0.0645982 22.3621 0.0636607 31.1456 0.0655356C32.4487 0.0655356 33.2718 0.886764 33.2718 2.18892C33.2727 12.7486 33.2709 23.3093 33.2746 33.869C33.2746 35.0006 32.6934 35.6662 31.6574 35.9999H4.28149V35.999ZM32.1506 7.36659C32.1506 5.61539 32.1506 3.9195 32.1506 2.22454C32.1506 1.49612 31.8365 1.18769 31.0977 1.18769C22.3462 1.18769 13.5946 1.18769 4.84399 1.18769C4.09118 1.18769 3.79118 1.49331 3.79118 2.25923C3.79118 3.83794 3.79118 5.41758 3.79118 6.99629V7.36659C4.24681 7.36659 4.66587 7.36284 5.08399 7.36659C5.52837 7.37128 5.77212 7.58128 5.76556 7.94314C5.75899 8.29001 5.52087 8.485 5.09337 8.48781C4.66587 8.49063 4.23743 8.48781 3.79118 8.48781C3.79118 8.65375 3.79118 8.76906 3.79118 8.8853C3.79118 17.1904 3.79118 25.4955 3.79118 33.8006C3.79118 34.5787 4.09118 34.8749 4.87681 34.8749C13.6049 34.8749 22.3331 34.8749 31.0612 34.8749C31.8618 34.8749 32.1524 34.5806 32.1524 33.7697C32.1524 25.4758 32.1524 17.1829 32.1524 8.88905C32.1524 8.76437 32.1524 8.63968 32.1524 8.48688H31.6621C23.7065 8.48688 15.7509 8.48688 7.79431 8.48688C7.67712 8.48688 7.55993 8.4925 7.44368 8.48406C7.13337 8.46063 6.91024 8.23563 6.90087 7.94502C6.89149 7.6619 7.10899 7.41253 7.41368 7.37316C7.54024 7.35722 7.67056 7.36472 7.79899 7.36472C15.7546 7.36472 23.7102 7.36472 31.6668 7.36472C31.8159 7.36472 31.9659 7.36472 32.1524 7.36472L32.1506 7.36659Z" fill="#09757A"/>
<path d="M17.9587 32.2882C12.0731 32.2798 7.29561 27.4949 7.3003 21.6141C7.30592 15.7408 12.1134 10.9419 17.9812 10.9531C23.8603 10.9644 28.649 15.7643 28.6397 21.6366C28.6303 27.5212 23.8406 32.2967 17.9578 32.2882H17.9587ZM17.9503 31.1661C23.205 31.1801 27.4894 26.9277 27.5175 21.6722C27.5447 16.3999 23.2462 12.0781 17.9728 12.0762C12.7303 12.0744 8.43748 16.3539 8.42342 21.5972C8.40936 26.8649 12.6778 31.152 17.9503 31.1661Z" fill="#09757A"/>
<path d="M10.2132 5.9594C8.69261 5.9594 7.17198 5.9594 5.65042 5.9594C5.1001 5.9594 4.91542 5.77285 4.91354 5.22255C4.91167 4.56725 4.90979 3.9129 4.91354 3.2576C4.91729 2.79824 5.11979 2.59293 5.57917 2.59293C8.69073 2.59012 11.8032 2.59012 14.9148 2.59293C15.3732 2.59293 15.5776 2.79917 15.5814 3.2576C15.586 3.93633 15.586 4.61413 15.5814 5.29286C15.5776 5.75129 15.3732 5.95753 14.9148 5.95847C13.3473 5.96222 11.7798 5.9594 10.2123 5.96034L10.2132 5.9594ZM6.0526 4.81193H14.432V3.73196H6.0526V4.81193Z" fill="#09757A"/>
<path d="M20.9119 4.25408C20.9166 3.01286 21.9319 2.0182 23.1806 2.03038C24.3994 2.04257 25.4025 3.05786 25.4006 4.27845C25.3988 5.51404 24.3741 6.52933 23.1403 6.52089C21.8953 6.51245 20.9072 5.50654 20.9119 4.25408ZM22.035 4.25501C22.0294 4.8775 22.5094 5.38092 23.1225 5.39592C23.7469 5.41092 24.2738 4.9 24.2756 4.27751C24.2775 3.67003 23.7741 3.16192 23.1619 3.15348C22.5516 3.14504 22.0406 3.64378 22.035 4.25501Z" fill="#09757A"/>
<path d="M26.5276 4.27362C26.5257 3.02772 27.5288 2.02649 28.7767 2.0293C29.9982 2.03212 31.0051 3.03428 31.0163 4.25674C31.0276 5.48953 30.0085 6.51887 28.7757 6.51981C27.5288 6.51981 26.5295 5.52234 26.5276 4.27362ZM27.6507 4.27081C27.6507 4.89142 28.1401 5.38922 28.7551 5.39484C29.3795 5.40047 29.9017 4.88017 29.8923 4.25956C29.8829 3.6502 29.3738 3.15146 28.7617 3.1524C28.1513 3.1524 27.6507 3.6577 27.6517 4.27081H27.6507Z" fill="#09757A"/>
<path d="M18.3412 4.84294C18.0731 4.84294 17.8049 4.85231 17.5368 4.84013C17.219 4.82513 17.0034 4.61045 16.9884 4.31702C16.9724 4.01234 17.1853 3.74609 17.5134 3.73297C18.0721 3.71141 18.6328 3.71141 19.1915 3.73297C19.5196 3.74516 19.7362 4.00952 19.724 4.31139C19.7109 4.61701 19.4859 4.82981 19.1456 4.842C18.8774 4.85138 18.6093 4.84388 18.3412 4.842V4.84294Z" fill="#09757A"/>
<path d="M10.6285 21.9675C11.2623 21.8109 11.8107 21.6497 12.3685 21.5428C14.3438 21.1659 16.2535 21.4884 18.1248 22.1372C19.4963 22.6125 20.8688 23.1112 22.3398 23.1009C23.2107 23.0953 24.0807 22.9621 24.9488 22.8599C25.0444 22.8487 25.1823 22.6771 25.1963 22.5665C25.456 20.5547 24.9479 18.7454 23.7198 17.1367C23.3635 16.6707 23.3335 16.3361 23.6448 16.1045C23.9495 15.8786 24.2457 15.9826 24.6038 16.4392C28.5601 21.4837 25.5994 28.9592 19.2535 29.9491C14.5304 30.6869 10.1185 27.297 9.60195 22.5337C9.05633 17.4967 13.0295 13.1215 18.092 13.1993C19.6819 13.2236 21.1557 13.668 22.4982 14.5277C22.8891 14.778 22.966 15.1989 22.6716 15.4633C22.4091 15.6986 22.1419 15.6339 21.8701 15.4605C21.0216 14.9205 20.0954 14.5867 19.1045 14.4142C15.3066 13.7543 11.462 16.4486 10.8104 20.2472C10.7148 20.8041 10.6895 21.3731 10.6285 21.9656V21.9675ZM12.7238 26.6502C15.4332 29.6782 20.4198 29.6154 23.0504 26.8077C22.9716 26.7748 22.8994 26.7355 22.8235 26.7139C21.8148 26.4242 20.8144 26.0989 19.7954 25.8552C17.356 25.273 14.972 25.3189 12.7248 26.6492L12.7238 26.6502ZM23.9757 25.8271C24.2504 25.3058 24.5607 24.7162 24.9019 24.0693C24.7463 24.0777 24.6882 24.0749 24.6329 24.0852C23.5304 24.283 22.4129 24.3608 21.3188 24.1359C20.1338 23.8921 18.9601 23.5696 17.8051 23.2059C16.4232 22.7709 15.0348 22.4362 13.5751 22.5234C12.6376 22.5796 11.7329 22.7859 10.8395 23.1506C10.9941 23.9352 11.2838 24.6421 11.6729 25.3115C11.9166 25.7314 11.9298 25.753 12.3563 25.5308C14.7048 24.3084 17.1704 24.0955 19.7166 24.6965C21.1107 25.0255 22.4869 25.4296 23.9766 25.828L23.9757 25.8271Z" fill="#09757A"/>
</svg>
