<svg width="30" height="30" viewBox="0 0 30 30" fill="none" xmlns="http://www.w3.org/2000/svg">
<path d="M29.668 16.6506C29.4952 17.0187 29.3238 17.392 28.9359 17.5857C28.7335 17.6866 28.5147 17.7541 28.2565 17.8551C28.2002 18.2966 28.1468 18.8064 28.0667 19.3118C27.9814 19.8454 27.9198 20.3901 27.7589 20.9029C27.506 21.7103 27.2085 22.508 26.8733 23.285C26.6797 23.7332 26.3637 24.1273 26.1234 24.5569C25.6947 25.3243 25.0747 25.8808 24.2447 26.2682C24.9679 27.2968 24.9768 28.289 24.0534 29.1557C23.3443 29.8214 22.4209 29.7665 21.8298 29.4273C20.7195 28.7914 20.5837 27.8029 20.9894 26.6756H8.72182C9.24768 27.9335 8.67954 28.9576 8.03427 29.3442C7.19838 29.8444 6.09696 29.7064 5.44798 28.9435C4.91544 28.3186 4.69294 27.3695 5.44131 26.2986C5.10087 26.0679 4.74041 25.8616 4.42519 25.6003C3.8615 25.1328 3.53886 24.4761 3.16356 23.8661C2.53609 22.8442 2.14744 21.7192 1.87821 20.5615C1.70613 19.8194 1.64902 19.0498 1.54 18.2929C1.517 18.1304 1.49104 17.9686 1.46657 17.8091C0.695949 17.7623 -0.00791713 17.0759 0.0543851 16.1542C0.09592 15.5382 0.692982 14.8637 1.30933 14.8184C1.86486 14.7776 2.42261 14.7568 3.02116 14.7256C3.02116 14.6269 3.02116 14.5127 3.02116 14.3984C3.02116 10.9335 3.02635 7.46867 3.01745 4.00381C3.01523 3.1927 3.23477 2.45505 3.65456 1.77455C4.23976 0.825408 5.1246 0.308166 6.18893 0.0603057C6.22157 0.0528847 6.24901 0.0232008 6.27868 0.00390625C7.08787 0.00390625 7.89705 0.00390625 8.70624 0.00390625C8.92059 0.198336 8.95174 0.446196 8.94729 0.722257C8.93468 1.47178 8.94284 2.22204 8.94284 2.92554C9.31072 3.12517 9.65784 3.30179 9.99308 3.49919C10.4997 3.79677 10.7578 4.27468 10.8905 4.82606C10.9358 5.01307 10.9195 5.21417 10.9595 5.40341C11.0292 5.73735 10.6962 5.98224 10.4107 5.98447C9.0986 5.99338 7.7858 5.99115 6.47374 5.98595C6.23788 5.98521 5.98348 5.75294 5.98794 5.52214C5.99832 4.9485 6.08139 4.37783 6.44037 3.91031C6.80973 3.42943 7.33188 3.16005 7.9245 3.00569V1.02949C7.35043 1.07327 6.77413 1.07253 6.21489 1.169C5.20248 1.34413 4.60839 2.04393 4.2227 2.9389C4.11442 3.19047 4.0358 3.47841 4.03505 3.75001C4.02467 7.39297 4.03061 11.0359 4.03209 14.6789C4.03209 14.6885 4.03505 14.6982 4.0447 14.7553H4.40516C12.1803 14.7553 19.9555 14.7605 27.7307 14.7486C28.6496 14.7472 29.3305 15.0403 29.6672 15.9405V16.6514L29.668 16.6506ZM16.3442 22.232C16.3442 22.4316 16.3501 22.5993 16.3427 22.7663C16.3309 23.0475 16.1358 23.2286 15.8584 23.2264C15.5328 23.2241 15.3385 23.006 15.3377 22.6334C15.3362 21.1426 15.3377 19.6517 15.3377 18.1616C15.3377 18.0577 15.3377 17.9538 15.3377 17.8565H2.54499C2.62658 18.4651 2.69555 19.0521 2.78604 19.6361C2.96479 20.7886 3.37865 21.8735 3.8385 22.9325C4.18562 23.731 4.7367 24.4211 5.40867 24.9792C5.90932 25.3948 6.47226 25.6686 7.17687 25.6664C12.3175 25.6471 17.4582 25.6515 22.5989 25.6634C23.1107 25.6649 23.5409 25.5024 23.9577 25.2404C24.6883 24.7818 25.1985 24.1139 25.6309 23.397C25.9113 22.9318 26.096 22.4063 26.2963 21.8965C26.6352 21.032 26.897 20.1452 27.0053 19.2176C27.058 18.7656 27.1195 18.3152 27.1781 17.8499H24.2796V18.1816C24.2796 19.5834 24.2818 20.9852 24.2766 22.3871C24.2766 22.5503 24.2514 22.7158 24.2173 22.8754C24.1624 23.1306 23.928 23.2768 23.6351 23.2219C23.4022 23.1781 23.2642 23.0267 23.2724 22.77C23.2776 22.5956 23.2731 22.4204 23.2731 22.2386H22.2904C22.1888 22.6156 22.4736 23.1804 21.7905 23.2227C21.338 23.2509 21.2883 23.1544 21.1711 22.2201C21.0406 22.2201 20.9049 22.2201 20.7699 22.2201C20.6253 22.2201 20.4799 22.2201 20.3397 22.2201C20.2196 23.187 20.1966 23.2278 19.776 23.2271C19.3926 23.2271 19.3325 23.1217 19.2183 22.2364H18.3787C18.2919 22.6171 18.5507 23.1878 17.8803 23.2197C17.1519 23.2538 17.3455 22.6431 17.2721 22.232H16.3442ZM16.365 15.8343V21.1307H23.2568V15.8343H16.365ZM15.3244 15.821H15.0848C10.6569 15.821 6.22973 15.821 1.80182 15.8232C1.66831 15.8232 1.5311 15.8462 1.40278 15.8841C1.13429 15.9627 1.04529 16.2989 1.20623 16.5297C1.36051 16.7508 1.58301 16.7679 1.81368 16.7679C6.22157 16.7686 10.6295 16.7686 15.0373 16.7679C15.1323 16.7679 15.2265 16.7597 15.3244 16.7545V15.8202V15.821ZM24.29 16.7694C24.3864 16.7694 24.4546 16.7694 24.5221 16.7694C25.694 16.7694 26.8651 16.7709 28.037 16.7664C28.1408 16.7664 28.2491 16.7412 28.3463 16.7048C28.6185 16.6031 28.6749 16.244 28.488 16.0221C28.3292 15.8336 28.1319 15.8225 27.9228 15.8225C26.8792 15.8202 25.8357 15.8217 24.7921 15.8217H24.29V16.7701V16.7694ZM6.964 28.5598C7.55142 28.542 7.92524 28.1843 7.9334 27.6745C7.94155 27.1535 7.47577 26.6675 6.97068 26.6645C6.36917 26.6608 6.05395 27.1721 6.04356 27.6515C6.03244 28.1643 6.44852 28.5613 6.964 28.5598ZM22.7606 28.5598C23.2768 28.5613 23.6929 28.1665 23.6833 27.6537C23.6751 27.1825 23.3643 26.6623 22.7584 26.6645C22.254 26.666 21.786 27.1513 21.7934 27.6715C21.8001 28.1828 22.1747 28.5405 22.7606 28.5598ZM9.77354 4.90991C9.49985 4.25538 8.94433 3.9207 8.25974 3.9719C7.78951 4.00678 7.22953 4.46985 7.13088 4.90991H9.77428H9.77354Z" fill="#09757A"/>
<path d="M11.0262 12.624C10.9447 12.8289 10.9076 13.0723 10.7726 13.2311C10.5456 13.4967 10.0895 13.4233 9.99603 13.093C9.91073 12.7932 9.92037 12.4467 9.96933 12.1335C10.0086 11.8812 10.2556 11.7691 10.51 11.81C10.8015 11.8567 10.9543 12.0675 10.9558 12.3599C10.9558 12.4385 10.9558 12.5179 10.9558 12.5966C10.9795 12.6062 11.0032 12.6151 11.027 12.6248L11.0262 12.624Z" fill="#09757A"/>
<path d="M10.9666 10.1334C10.9548 10.2885 10.9844 10.4643 10.9199 10.5935C10.8205 10.7916 10.6536 10.9489 10.3881 10.9037C10.1597 10.8651 9.96238 10.7701 9.94532 10.5193C9.92604 10.2261 9.90749 9.91964 9.97276 9.63838C10.038 9.3549 10.3162 9.32819 10.5676 9.36826C10.7909 9.40314 10.9273 9.55081 10.9525 9.77938C10.9652 9.89589 10.9548 10.0146 10.9548 10.1326C10.9585 10.1326 10.9629 10.1326 10.9666 10.1334Z" fill="#09757A"/>
<path d="M10.9549 7.64786C10.9549 7.70723 10.9549 7.7666 10.9549 7.82596C10.9541 8.1985 10.8184 8.38625 10.5299 8.41445C10.1746 8.44933 9.96915 8.32169 9.90908 7.96622C9.87199 7.74879 9.88089 7.51206 9.92317 7.29462C9.98176 6.99407 10.225 6.83897 10.4965 6.87534C10.7791 6.91318 10.9541 7.12913 10.9556 7.44082C10.9556 7.50983 10.9556 7.57885 10.9556 7.64786H10.9549Z" fill="#09757A"/>
<path d="M6.98686 12.6273C6.9965 12.8915 7.01652 13.2017 6.64419 13.3338C6.34158 13.4414 6.01672 13.2566 5.98631 12.936C5.9648 12.7119 5.97074 12.4833 5.98483 12.2585C5.99892 12.0277 6.26593 11.785 6.4699 11.7932C6.71837 11.8028 6.96164 12.0195 6.98463 12.2622C6.99502 12.369 6.98611 12.4781 6.98611 12.628L6.98686 12.6273Z" fill="#09757A"/>
<path d="M8.93207 12.5922C8.93207 12.7295 8.98547 12.9053 8.92021 12.9951C8.80524 13.154 8.63243 13.3402 8.45887 13.3699C8.25194 13.4055 8.00866 13.2831 7.98864 13.004C7.96935 12.7295 7.96639 12.4512 7.98938 12.1774C8.01386 11.885 8.25342 11.8108 8.49225 11.7981C8.69918 11.7877 8.92614 12.0608 8.94023 12.2968C8.94617 12.3948 8.94097 12.4935 8.94097 12.5914C8.93801 12.5914 8.93504 12.5914 8.93133 12.5914L8.93207 12.5922Z" fill="#09757A"/>
<path d="M7.03499 10.1887C6.97343 10.3779 6.96083 10.6139 6.83622 10.7415C6.72423 10.8566 6.47205 10.9211 6.31555 10.8796C6.1813 10.8447 6.03445 10.6421 6.00033 10.4892C5.94841 10.2555 5.95583 9.99499 5.9981 9.75604C6.05596 9.43397 6.24657 9.32636 6.56995 9.36198C6.8021 9.38796 6.97121 9.59426 6.98604 9.87626C6.99123 9.97421 6.98678 10.0729 6.98678 10.1716L7.03425 10.1879L7.03499 10.1887Z" fill="#09757A"/>
<path d="M8.96177 10.138C8.93878 10.2991 8.94842 10.4749 8.88612 10.6189C8.7934 10.8326 8.59982 10.9907 8.36471 10.8912C8.21192 10.8267 8.02427 10.6567 8.00128 10.5098C7.95455 10.2159 7.96197 9.89387 8.0354 9.60667C8.10363 9.33952 8.40402 9.2987 8.61614 9.3833C8.75855 9.44044 8.85497 9.65343 8.93433 9.81446C8.97735 9.90129 8.94174 10.0274 8.94174 10.1358C8.94842 10.1365 8.95584 10.1373 8.96251 10.1388L8.96177 10.138Z" fill="#09757A"/>
<path d="M8.94194 7.64148C8.94194 7.73053 8.94194 7.81884 8.94194 7.9079C8.94194 8.1565 8.84923 8.35761 8.5926 8.40955C8.25587 8.47857 8.0037 8.33683 7.95549 8.01995C7.9184 7.7758 7.94066 7.51236 7.99109 7.26821C8.05339 6.96988 8.28406 6.83185 8.54513 6.8749C8.75948 6.91052 8.93897 7.14873 8.94194 7.40475C8.94268 7.48342 8.94194 7.56282 8.94194 7.64148Z" fill="#09757A"/>
<path d="M6.9808 7.6535C6.9808 7.7715 7.01047 7.89988 6.97413 8.00526C6.9059 8.20488 6.82208 8.39486 6.55062 8.42009C6.2673 8.4468 6.07149 8.34885 6.03441 8.0765C5.99658 7.7945 5.98842 7.49692 6.03292 7.21715C6.07446 6.95816 6.2888 6.82606 6.55507 6.88172C6.81467 6.93589 6.97339 7.10806 6.98526 7.38783C6.98897 7.47614 6.98526 7.56519 6.98526 7.65424C6.98303 7.65424 6.98081 7.65424 6.97932 7.65424L6.9808 7.6535Z" fill="#09757A"/>
</svg>
