<svg width="29" height="30" viewBox="0 0 29 30" fill="none" xmlns="http://www.w3.org/2000/svg">
<path d="M1.07378 29.0158C0.820029 28.8896 0.717319 28.6916 0.722606 28.4022C0.736955 27.6791 0.725632 26.9559 0.727897 26.232C0.728652 25.858 0.917449 25.6298 1.21349 25.6359C1.50802 25.6411 1.68928 25.8701 1.69079 26.2472C1.69305 26.9514 1.68172 27.6564 1.69607 28.3606C1.70211 28.6538 1.60847 28.8692 1.35698 29.0158H1.07454H1.07378Z" fill="#09757A"/>
<path d="M8.45598 18.0337C8.19165 19.016 7.74457 19.3561 6.74694 19.3568C6.53019 19.3568 6.31345 19.3591 6.09671 19.3568C5.31809 19.347 4.80228 18.9352 4.61877 18.1796C4.60819 18.135 4.59309 18.0912 4.58025 18.0481C4.03952 18.1569 3.62188 18.7334 3.62037 19.3848C3.61584 20.7608 3.61886 22.1375 3.61886 23.5135C3.61886 24.3144 3.61886 25.1162 3.61886 25.9171C3.61886 26.3788 3.46027 26.5979 3.13024 26.5942C2.80475 26.5904 2.65597 26.375 2.65597 25.905C2.65597 23.784 2.65597 21.663 2.65597 19.542C2.65597 18.2234 3.28657 17.3771 4.56514 16.9932V16.0495C3.34926 16.1318 2.13866 17.1935 1.81468 18.4856C1.73311 18.8105 1.69988 19.1551 1.69762 19.4913C1.68553 20.9995 1.69309 22.5078 1.69007 24.016C1.69007 24.1361 1.68251 24.2653 1.64022 24.3749C1.55488 24.5925 1.37514 24.69 1.1433 24.6598C0.910692 24.6288 0.771733 24.4867 0.736993 24.2555C0.722644 24.1633 0.729443 24.0674 0.729443 23.9729C0.729443 22.5025 0.763419 21.0305 0.721128 19.5616C0.65618 17.2857 2.27309 15.3966 4.4073 15.0694C4.45337 15.0626 4.49944 15.0506 4.58326 15.0332C4.58326 14.8737 4.58024 14.7075 4.58326 14.542C4.59988 13.7683 5.13004 13.1713 5.90035 13.1018C6.29306 13.0663 6.69256 13.0671 7.08603 13.0965C7.88051 13.1555 8.40764 13.7305 8.43861 14.5292C8.44163 14.6123 8.44842 14.6954 8.45522 14.8103C9.72472 14.6448 10.9769 14.4808 12.2788 14.3108C11.6641 13.6103 11.0879 12.9522 10.5101 12.2963C9.98678 11.7024 9.99812 11.2339 10.5555 10.6763C12.3672 8.86278 14.1812 7.05081 15.9862 5.23053C16.0866 5.12927 16.1644 4.96606 16.1787 4.824C16.329 3.31805 16.8773 2.00554 18.0788 1.04364C19.1867 0.156538 20.4993 -0.0421893 21.8707 0.0809767C23.5473 0.232101 24.6424 1.23632 25.464 2.61003C26.2819 3.97846 26.7131 5.48668 27.0273 7.03419C27.3792 8.76607 27.5242 10.5199 27.5922 12.2835C27.5975 12.4225 27.6511 12.5774 27.7289 12.6938C28.4909 13.8469 28.3935 15.3218 27.4238 16.3102C25.7805 17.9854 24.1243 19.6485 22.447 21.2905C21.2772 22.436 19.4601 22.3967 18.3522 21.1877C17.9595 20.7593 17.526 20.5333 16.9861 20.3867C14.1993 19.6296 11.4187 18.8498 8.63647 18.0776C8.58285 18.0625 8.52848 18.0511 8.45749 18.0337H8.45598ZM12.9616 13.6224C13.0748 13.7516 13.1798 13.8725 13.2848 13.9927C15.1441 16.1099 17.0065 18.2249 18.8628 20.3444C19.7652 21.3743 20.963 21.4204 21.9357 20.4479C23.4824 18.9027 25.0283 17.3559 26.5734 15.8084C27.5341 14.8458 27.4963 13.6557 26.4722 12.7535C24.2799 10.8229 22.0845 8.89528 19.8898 6.96694C19.8362 6.92009 19.775 6.88231 19.7312 6.85057C17.4686 9.1129 15.2234 11.3586 12.9608 13.6217L12.9616 13.6224ZM24.4747 9.70832C24.4747 9.57155 24.4868 9.49448 24.4732 9.4227C24.2882 8.43359 24.1341 7.43693 23.9015 6.45916C23.6749 5.50557 23.3366 4.58371 22.7604 3.77218C22.5285 3.44575 22.2635 3.12915 21.8655 3.02487C20.6813 2.71658 19.3536 3.14048 19.109 4.74088C19.0833 4.90712 19.1271 5.01744 19.257 5.13078C20.4713 6.18941 21.6789 7.25558 22.8888 8.31874C23.4031 8.7706 23.9189 9.2217 24.4747 9.70832ZM12.2713 12.8351C14.5082 10.5969 16.7293 8.37617 18.9579 6.14634C18.5274 5.76853 18.0766 5.37258 17.6491 4.99779C15.4666 7.18153 13.3029 9.34638 11.1219 11.5279C11.5025 11.9608 11.8975 12.4104 12.2713 12.8351ZM18.2593 4.14696C18.2676 4.12354 18.2895 4.06233 18.3099 3.99962C18.6551 2.93268 19.3529 2.24961 20.4721 2.04786C21.6457 1.83628 22.6811 2.0403 23.4476 3.05661C23.977 3.75782 24.3259 4.54518 24.5963 5.37107C25.1355 7.01756 25.3878 8.71922 25.5554 10.4367C25.5652 10.535 25.5743 10.6619 25.6355 10.7209C25.9239 10.9967 26.2313 11.2528 26.5825 11.5603C26.5719 11.3148 26.5734 11.138 26.5545 10.9642C26.4511 10.0189 26.3688 9.07058 26.2298 8.13059C26.0078 6.62767 25.6596 5.15345 24.995 3.77596C24.804 3.37926 24.5812 2.99162 24.3252 2.63421C23.2973 1.20156 21.9999 0.700584 19.988 1.17587C18.4957 1.52874 17.6952 2.58057 17.3138 3.97469C17.6333 4.03287 17.9301 4.08651 18.2593 4.14696ZM16.6115 19.2903C16.5903 19.2359 16.5888 19.2254 16.5828 19.2193C15.4409 17.9151 14.2998 16.6094 13.1504 15.312C13.0907 15.2447 12.9532 15.2085 12.8573 15.2183C12.408 15.2621 11.9601 15.3264 11.5123 15.3845C10.4965 15.5175 9.48004 15.6513 8.43785 15.788C8.43785 16.1137 8.44993 16.4235 8.43332 16.7318C8.42199 16.9441 8.48166 17.0378 8.70369 17.0975C10.1386 17.4821 11.5689 17.8864 13.0001 18.2846C14.1948 18.6171 15.3888 18.9503 16.6107 19.2911L16.6115 19.2903ZM7.47345 16.2595H7.47269C7.47269 15.6943 7.47798 15.1291 7.47043 14.5639C7.46665 14.2451 7.30278 14.0705 6.98634 14.0554C6.66689 14.041 6.34592 14.0403 6.02647 14.0569C5.73042 14.072 5.55145 14.2511 5.54994 14.5473C5.54238 15.6686 5.54163 16.7892 5.55069 17.9106C5.55296 18.2022 5.74629 18.3768 6.03855 18.3874C6.31118 18.3972 6.58457 18.3919 6.85795 18.3904C7.31712 18.3881 7.47118 18.2378 7.47345 17.7859C7.47571 17.2774 7.47345 16.7681 7.47345 16.2595Z" fill="#09757A"/>
<path d="M25.3342 14.3261C24.9679 14.0027 24.6182 13.6914 24.2655 13.3824C24.0631 13.2048 24.0035 12.9932 24.1273 12.7514C24.2655 12.4809 24.6001 12.4129 24.8501 12.6207C25.2473 12.9516 25.64 13.2894 26.0123 13.6476C26.3915 14.0125 26.4013 14.5777 26.0395 14.9699C25.6884 15.3492 25.3175 15.7112 24.9445 16.0693C24.727 16.2786 24.4566 16.2726 24.2618 16.0829C24.0647 15.891 24.0654 15.5993 24.2807 15.3787C24.6213 15.0288 24.9709 14.6888 25.3349 14.3261H25.3342Z" fill="#09757A"/>
</svg>
