<svg width="30" height="30" viewBox="0 0 30 30" fill="none" xmlns="http://www.w3.org/2000/svg">
<path d="M26.7234 10.7545V8.90528H27.6531V10.7545C27.7984 10.7545 27.9125 10.7529 28.0257 10.7545C28.4265 10.7607 28.5937 10.9232 28.5945 11.3256C28.5968 12.31 28.5953 13.2951 28.5953 14.2795C28.5953 14.3373 28.5953 14.3951 28.5953 14.499C28.7476 14.499 28.889 14.4943 29.0296 14.4998C29.3421 14.5131 29.5234 14.6818 29.5281 14.9912C29.5367 15.5959 29.5359 16.1998 29.5281 16.8045C29.5242 17.117 29.346 17.2897 29.0375 17.3045C28.9023 17.3107 28.7671 17.3053 28.5953 17.3053C28.5953 17.4365 28.5953 17.5498 28.5953 17.6631C28.5953 21.3678 28.5953 25.0725 28.5953 28.7772C28.5953 29.3498 28.4687 29.4748 27.8882 29.4748C19.3109 29.4748 10.7335 29.4748 2.1562 29.4748C1.58042 29.4748 1.45542 29.3498 1.45542 28.7717C1.45542 25.0764 1.45542 21.3818 1.45542 17.6865C1.45542 17.5709 1.45542 17.4561 1.45542 17.3045C1.29292 17.3045 1.14995 17.3107 1.00776 17.3029C0.71167 17.2881 0.528076 17.1193 0.523389 16.8279C0.514014 16.2139 0.514014 15.5998 0.523389 14.9857C0.528076 14.6678 0.716357 14.5014 1.05542 14.499C1.70854 14.4943 2.36167 14.4975 3.01479 14.4975C3.10933 14.4975 3.20464 14.4975 3.32808 14.4975C3.32808 13.9076 3.32808 13.3443 3.32808 12.7818C3.32808 12.3139 3.32729 11.8459 3.32808 11.3779C3.32964 10.9022 3.47808 10.7561 3.96011 10.7529C4.04683 10.7529 4.13433 10.7529 4.24526 10.7529C4.3062 10.1264 4.6062 9.67481 5.18901 9.42559C5.24839 9.40059 5.28667 9.31231 5.32026 9.2459C5.58745 8.72559 6.00229 8.41934 6.59526 8.417C7.19995 8.41544 7.62339 8.72247 7.89136 9.25762C7.92417 9.32325 7.9687 9.40528 8.02886 9.43184C8.60229 9.68028 8.89683 10.1248 8.95854 10.7529C9.03823 10.7529 9.10542 10.7529 9.17183 10.7529C9.76636 10.7584 9.87808 10.8732 9.87808 11.4795C9.87808 12.4725 9.87808 13.4654 9.87808 14.4779H11.75C11.75 14.0561 11.7484 13.6397 11.75 13.224C11.7523 12.7842 11.9093 12.6256 12.35 12.6256C16.0054 12.6248 19.6601 12.6248 23.3156 12.6256C23.7562 12.6256 23.914 12.7842 23.9156 13.224C23.9179 13.6334 23.9156 14.042 23.9156 14.474H25.7875C25.7875 14.3475 25.7875 14.2154 25.7875 14.0826C25.7875 13.1951 25.7875 12.3084 25.7875 11.4209C25.7875 10.8865 25.9195 10.7568 26.464 10.7522C26.5398 10.7522 26.6156 10.7522 26.7226 10.7522L26.7234 10.7545ZM2.40464 28.5193H14.5351V17.3217H2.40464V28.5193ZM27.6398 28.5264V17.3295H15.5093V28.5264H27.6398ZM1.46948 16.3514H28.5734V15.449H1.46948V16.3514ZM8.93198 11.7131H4.27886V14.4811H8.93198V11.7131ZM18.3148 14.4779H22.9578V13.5779H18.3148V14.4779ZM17.3531 13.5826H12.7101V14.4842H17.3531V13.5826ZM26.7453 11.7037V14.4756H27.646V11.7037H26.7453ZM8.00776 10.7475C7.96245 10.4623 7.81792 10.3147 7.5648 10.2897C7.25386 10.2592 7.10151 10.0967 7.06558 9.78731C7.03433 9.51387 6.84526 9.35215 6.60308 9.35215C6.36089 9.35215 6.17339 9.51387 6.14136 9.78809C6.10542 10.0975 5.95229 10.2576 5.64136 10.2904C5.38276 10.3178 5.23042 10.4639 5.21323 10.7475H8.00698H8.00776Z" fill="#09757A"/>
<path d="M13.1533 2.32949V0.475586H14.083V2.3084H15.9486V0.481836H16.8892V2.33027C17.0252 2.33027 17.1291 2.33027 17.233 2.33027C19.5533 2.33027 21.8728 2.33496 24.1931 2.3248C24.5135 2.32324 24.7174 2.43652 24.8892 2.70215C25.44 3.55293 26.0072 4.39199 26.5713 5.23418C26.697 5.42246 26.7861 5.60996 26.6619 5.83027C26.5392 6.04668 26.3353 6.07715 26.1088 6.07637C18.7197 6.07402 11.3306 6.07402 3.94157 6.07637C3.71423 6.07637 3.51267 6.04512 3.38923 5.82871C3.26267 5.60684 3.35642 5.42012 3.48142 5.2334C4.05564 4.37559 4.63142 3.51777 5.19626 2.65371C5.35251 2.41465 5.54861 2.32637 5.83064 2.32715C8.14079 2.33418 10.4509 2.33105 12.7611 2.33105C12.8775 2.33105 12.9939 2.33105 13.1525 2.33105L13.1533 2.32949ZM25.3767 5.12949C25.0119 4.58184 24.6642 4.08965 24.3494 3.57637C24.2056 3.34199 24.0502 3.25762 23.7697 3.25762C17.9884 3.26699 12.208 3.26855 6.42673 3.25605C6.05798 3.25605 5.8197 3.33262 5.63298 3.67246C5.39939 4.09824 5.10095 4.48809 4.8322 4.89434C4.78689 4.96309 4.75017 5.0373 4.69704 5.12949H25.3759H25.3767Z" fill="#09757A"/>
<path d="M8.44522 27.6037C6.95381 27.6037 5.46241 27.6037 3.971 27.6037C3.47335 27.6037 3.32803 27.4576 3.32725 26.96C3.32725 25.5068 3.32647 24.0545 3.32725 22.6014C3.32725 22.142 3.48194 21.9873 3.94053 21.9873C6.96241 21.9873 9.98428 21.9873 13.0062 21.9873C13.4648 21.9873 13.6202 22.142 13.6202 22.6006C13.621 24.0631 13.621 25.5256 13.6202 26.9881C13.6202 27.4467 13.464 27.6021 13.0062 27.6029C11.4858 27.6037 9.96475 27.6029 8.44444 27.6029L8.44522 27.6037ZM12.6648 24.7834V22.9467H4.27881V24.7834H12.6648ZM4.28038 25.7459V26.649H12.6632V25.7459H4.28038Z" fill="#09757A"/>
<path d="M8.4697 18.2441C9.24627 18.2418 9.8822 18.8793 9.87752 19.6559C9.87361 20.4191 9.24392 21.0473 8.47986 21.0504C7.70408 21.0527 7.06736 20.4145 7.07205 19.6379C7.07595 18.8746 7.70564 18.2465 8.46892 18.2441H8.4697ZM8.9408 19.6504C8.94314 19.3965 8.7322 19.1832 8.4783 19.1809C8.22439 19.1785 8.01111 19.3895 8.00955 19.6434C8.0072 19.8965 8.21814 20.1106 8.47127 20.1129C8.72439 20.1152 8.93845 19.9035 8.94002 19.6504H8.9408Z" fill="#09757A"/>
<path d="M4.74157 18.2442C5.51657 18.2489 6.14547 18.8942 6.13376 19.6723C6.12204 20.434 5.48532 21.0559 4.72047 21.0504C3.94547 21.0457 3.31657 20.3996 3.32829 19.6223C3.34 18.8606 3.97594 18.2395 4.74157 18.2442ZM4.72985 20.1129C4.98297 20.1137 5.19625 19.9012 5.19704 19.6481C5.19704 19.3942 4.9861 19.1817 4.73297 19.1809C4.47907 19.1809 4.26657 19.391 4.26579 19.6449C4.265 19.8989 4.47672 20.1114 4.72985 20.1121V20.1129Z" fill="#09757A"/>
<path d="M13.6212 19.6395C13.6251 20.4152 12.9868 21.0535 12.211 21.0504C11.4477 21.0473 10.8188 20.4176 10.8157 19.6543C10.8126 18.8777 11.4493 18.241 12.2258 18.2442C12.9899 18.2473 13.618 18.8754 13.6212 19.6395ZM12.2063 19.1809C11.9524 19.1879 11.7462 19.4051 11.7524 19.6582C11.7594 19.9121 11.9774 20.1192 12.2297 20.1121C12.4829 20.1051 12.6907 19.8871 12.6837 19.634C12.6766 19.3801 12.4594 19.1731 12.2063 19.1801V19.1809Z" fill="#09757A"/>
<path d="M21.5774 21.9873C23.079 21.9873 24.5797 21.9873 26.0813 21.9873C26.579 21.9873 26.7243 22.1326 26.7243 22.6311C26.7243 24.074 26.7243 25.517 26.7243 26.96C26.7243 27.4568 26.5774 27.6029 26.0805 27.6037C23.0782 27.6037 20.0758 27.6037 17.0735 27.6037C16.5766 27.6037 16.4305 27.4576 16.4305 26.96C16.4305 25.5068 16.4297 24.0545 16.4305 22.6014C16.4305 22.142 16.5852 21.9881 17.0446 21.9881C18.5555 21.9873 20.0665 21.9881 21.5774 21.9881V21.9873ZM25.768 24.7826V22.9459H17.3813V24.7826H25.768ZM25.7751 25.7506H17.3891V26.6529H25.7751V25.7506Z" fill="#09757A"/>
<path d="M17.8243 21.0504C17.0493 21.0457 16.4196 20.4012 16.4306 19.6231C16.4415 18.8614 17.0774 18.2395 17.8423 18.2442C18.6173 18.2481 19.247 18.8926 19.236 19.6707C19.2251 20.4324 18.5884 21.0551 17.8243 21.0504ZM18.2993 19.6426C18.297 19.3887 18.0829 19.1785 17.829 19.1817C17.5751 19.184 17.3649 19.3981 17.3681 19.652C17.3704 19.9059 17.5852 20.116 17.8384 20.1137C18.0915 20.1114 18.3024 19.8965 18.2993 19.6434V19.6426Z" fill="#09757A"/>
<path d="M21.5899 18.2442C22.3649 18.2504 22.9922 18.8965 22.9797 19.6747C22.9672 20.4364 22.3289 21.0567 21.5641 21.0504C20.7899 21.0442 20.1618 20.3973 20.1743 19.6192C20.1868 18.8575 20.825 18.2379 21.5899 18.2442ZM22.0422 19.6614C22.05 19.4082 21.8438 19.1895 21.5907 19.1817C21.3375 19.1739 21.1188 19.3793 21.111 19.6332C21.1032 19.8864 21.3094 20.1051 21.5625 20.1137C21.8149 20.1215 22.0344 19.9153 22.0422 19.6622V19.6614Z" fill="#09757A"/>
<path d="M23.918 19.6572C23.9133 18.8799 24.5477 18.2416 25.3242 18.2432C26.0883 18.2447 26.718 18.8713 26.7235 19.6354C26.7289 20.4119 26.0922 21.0518 25.3172 21.0494C24.5539 21.0479 23.9235 20.4197 23.918 19.6572ZM25.786 19.6346C25.7789 19.3807 25.5617 19.1736 25.3086 19.1807C25.0547 19.1877 24.8485 19.4049 24.8547 19.658C24.861 19.9119 25.0789 20.1189 25.3321 20.1127C25.5852 20.1057 25.793 19.8877 25.786 19.6354V19.6346Z" fill="#09757A"/>
</svg>
