<svg width="31" height="31" viewBox="0 0 31 31" fill="none" xmlns="http://www.w3.org/2000/svg">
<path d="M10.4093 0.000976562C10.6813 0.149417 10.7899 0.372074 10.7802 0.686947C10.7622 1.25447 10.7764 1.82349 10.7749 2.39176C10.7734 2.89031 10.6078 3.05674 10.1163 3.06199C10.0091 3.06349 9.90125 3.06199 9.77536 3.06199V4.60862C9.97018 4.60862 10.1568 4.60112 10.3426 4.61012C11.1556 4.64985 11.782 5.29909 11.7925 6.10727C11.8029 6.91694 11.1998 7.58717 10.392 7.65314C10.195 7.66889 9.99641 7.65539 9.77762 7.65539V14.7955H10.7764C10.7764 14.3644 10.7764 13.9394 10.7764 13.5135C10.7772 12.931 10.9398 12.7668 11.5242 12.7668C17.254 12.7668 22.9838 12.7766 28.7137 12.7563C29.6795 12.7526 30.3801 13.039 30.6911 14.0076V14.5466C30.5592 14.9874 30.3651 15.3983 29.935 15.6089C29.7087 15.7191 29.645 15.8661 29.6218 16.0895C29.5094 17.1698 29.134 18.1602 28.5481 19.0688C27.5216 20.6589 26.0844 21.7332 24.3168 22.3757C24.1205 22.4469 24.0374 22.5301 24.0471 22.7506C24.0703 23.2881 24.0583 23.8279 24.0688 24.3661C24.1055 26.2666 24.4517 28.0862 25.4363 29.7475C25.7487 30.2745 25.5165 30.6471 24.9065 30.6471C19.5633 30.6486 14.2202 30.6479 8.87697 30.6471C8.36221 30.6471 8.16364 30.4237 8.24906 29.9169C8.42065 28.9033 8.56002 27.8882 8.5278 26.8559C8.47535 25.1571 7.88491 23.7072 6.57215 22.5901C5.89704 22.0151 5.2032 21.4618 4.53184 20.8823C3.34046 19.8552 2.52599 18.5972 2.245 17.0289C2.17532 16.6398 2.13486 16.2462 2.08091 15.8526C2.00973 15.8466 1.96028 15.8406 1.91157 15.8391C1.18101 15.8196 1.07836 15.7131 1.07836 14.9702C1.07836 11.1205 1.07836 7.27004 1.07836 3.42035V3.06349C0.948734 3.06349 0.870062 3.06349 0.791386 3.06349C0.203194 3.05899 0.0600788 2.91205 0.0600788 2.31229C0.0600788 1.78375 0.0735609 1.25447 0.0548287 0.726683C0.0435893 0.406563 0.139497 0.164408 0.418232 0.00247285H10.4093V0.000976562ZM3.12917 15.8376C3.19585 16.9696 3.47085 17.975 4.08826 18.8709C4.56406 19.5606 5.19571 20.0906 5.82811 20.6274C6.58639 21.2714 7.38664 21.8839 8.04976 22.6179C9.41721 24.1322 9.67196 26.0057 9.54084 27.961C9.50412 28.5112 9.42995 29.0593 9.37076 29.629C11.0642 29.629 12.7268 29.6313 14.3895 29.6223C14.4637 29.6223 14.5686 29.5443 14.6075 29.4738C15.0496 28.6777 15.3703 27.8343 15.5606 26.9414C15.8626 25.5259 15.8409 24.0895 15.8574 22.6546C15.8596 22.4799 15.7599 22.4499 15.6401 22.3922C15.0301 22.1021 14.3895 21.8592 13.8245 21.4971C11.8726 20.2466 10.6311 18.4998 10.3126 16.1667C10.2751 15.8908 10.1897 15.8308 9.93346 15.8316C7.78075 15.8406 5.6288 15.8368 3.47609 15.8368H3.12917V15.8376ZM28.6005 15.8586H11.3346C11.3901 16.5633 11.5632 17.2155 11.8689 17.8235C13.0528 20.1746 15.0346 21.4603 17.5702 21.8232C18.9002 22.0136 20.2722 21.9206 21.6254 21.9289C21.9895 21.9311 22.3597 21.8599 22.7186 21.7834C24.8683 21.3239 26.6149 20.2556 27.7853 18.3506C28.2491 17.5956 28.5233 16.771 28.599 15.8578L28.6005 15.8586ZM8.72561 3.07999H2.11463V14.7888H8.72561V3.07999ZM24.2172 29.614C23.0798 27.4444 23.0191 25.1159 23.0341 22.7805C20.9765 23.0797 18.9557 23.0729 16.9476 22.7903C16.8801 23.9591 16.8487 25.1144 16.7378 26.2629C16.6246 27.4279 16.2612 28.5352 15.7285 29.614H24.2172ZM11.8119 14.8128H12.1117C17.7216 14.8128 23.3308 14.8128 28.9407 14.812C29.0501 14.812 29.161 14.809 29.2674 14.7873C29.5154 14.7363 29.6473 14.5601 29.6563 14.3225C29.666 14.0833 29.5454 13.8951 29.3019 13.8307C29.1692 13.7954 29.0261 13.7917 28.8875 13.7917C23.3075 13.7902 17.7276 13.7902 12.1484 13.7902H11.8119V14.8135V14.8128ZM1.08585 2.02441H9.73341V1.04531H1.08585V2.02441ZM9.77012 6.64704C10.1305 6.6223 10.5194 6.752 10.697 6.35916C10.7629 6.21297 10.7345 5.95133 10.6408 5.81863C10.4235 5.51125 10.0781 5.6447 9.77012 5.63045V6.64704Z" fill="#09757A"/>
</svg>
